HIERARCHY
ROOT Hips
{
	OFFSET 0.000000 0.000000 0.000000
	CHANNELS 6 Xposition Yposition Zposition Zrotation Yrotation Xrotation 
	JOINT LowerBack
	{
		OFFSET 0.000000 0.000000 0.000000
		CHANNELS 3 Zrotation Yrotation Xrotation
		JOINT Spine
		{
			OFFSET 0.028270 2.035590 -0.193380
			CHANNELS 3 Zrotation Yrotation Xrotation
			JOINT Spine1
			{
				OFFSET 0.056720 2.048850 -0.042750
				CHANNELS 3 Zrotation Yrotation Xrotation
				JOINT Neck
				{
					OFFSET 0.000000 0.000000 0.000000
					CHANNELS 3 Zrotation Yrotation Xrotation
					JOINT Neck1
					{
						OFFSET -0.054170 1.746240 0.172020
						CHANNELS 3 Zrotation Yrotation Xrotation
						JOINT Head
						{
							OFFSET 0.104070 1.761360 -0.123970
							CHANNELS 3 Zrotation Yrotation Xrotation
							End Site
							{
								OFFSET 0.000000 0.000000 0.000000
							}
						}
					}
				}
				JOINT LeftShoulder
				{
					OFFSET 0.000000 0.000000 0.000000
					CHANNELS 3 Zrotation Yrotation Xrotation
					JOINT LeftArm
					{
						OFFSET 3.362410 1.200890 -0.311210
						CHANNELS 3 Zrotation Yrotation Xrotation
						JOINT LeftForeArm
						{
							OFFSET 4.983000 -0.000000 -0.000000
							CHANNELS 3 Zrotation Yrotation Xrotation
							JOINT LeftHand
							{
								OFFSET 3.483560 -0.000000 -0.000000
								CHANNELS 3 Zrotation Yrotation Xrotation
								JOINT LeftFingerBase
								{
									OFFSET 0.000000 0.000000 0.000000
									CHANNELS 3 Zrotation Yrotation Xrotation
									JOINT LeftHandIndex1
									{
										OFFSET 0.715260 -0.000000 -0.000000
										CHANNELS 3 Zrotation Yrotation Xrotation
										End Site
										{
											OFFSET 0.000000 0.000000 0.000000
										}
									}
								}
								JOINT LThumb
								{
									OFFSET 0.000000 0.000000 0.000000
									CHANNELS 3 Zrotation Yrotation Xrotation
									End Site
									{
										OFFSET 0.000000 0.000000 0.000000
									}
								}
							}
						}
					}
				}
				JOINT RightShoulder
				{
					OFFSET 0.000000 0.000000 0.000000
					CHANNELS 3 Zrotation Yrotation Xrotation
					JOINT RightArm
					{
						OFFSET -3.136600 1.374050 -0.404650
						CHANNELS 3 Zrotation Yrotation Xrotation
						JOINT RightForeArm
						{
							OFFSET -5.241900 -0.000000 -0.000000
							CHANNELS 3 Zrotation Yrotation Xrotation
							JOINT RightHand
							{
								OFFSET -3.444170 -0.000000 -0.000000
								CHANNELS 3 Zrotation Yrotation Xrotation
								JOINT RightFingerBase
								{
									OFFSET 0.000000 0.000000 0.000000
									CHANNELS 3 Zrotation Yrotation Xrotation
									JOINT RightHandIndex1
									{
										OFFSET -0.622530 -0.000000 -0.000000
										CHANNELS 3 Zrotation Yrotation Xrotation
										End Site
										{
											OFFSET 0.000000 0.000000 0.000000
										}
									}
								}
								JOINT RThumb
								{
									OFFSET 0.000000 0.000000 0.000000
									CHANNELS 3 Zrotation Yrotation Xrotation
									End Site
									{
										OFFSET 0.000000 0.000000 0.000000
									}
								}
							}
						}
					}
				}
			}
		}
	}
}
}
MOTION
Frames: 15
Frame Time: 0.008333
-1.314024 17.258148 -1.365655 0.105090 81.422246 12.368540 -0.978026 -2.161611 2.496105 -1.128719 -2.089462 -2.232300 -7.691329 -2.089958 0.948818 9.755878 -4.856368 -3.558420 -3.926690 -0.321235 0.956296 0.000000 0.000000 0.000000 -4.282963 1.354677 2.642513 -44.516823 -21.706663 16.110416 -2.867924 -45.471858 -0.007080 4.085913 -0.031552 -0.005011 -0.170185 0.139569 0.000000 0.000000 0.000000 0.000000 0.000000 0.000000 0.000000 16.970890 -4.211431 0.956453 62.344274 2.142434 4.222994 3.371986 28.383091 0.009267 5.226055 4.719229 0.215552 0.055648 -0.043963 -0.000000 0.000000 0.000000 0.000000 0.000000 0.000000 0.000000 
-1.178401 17.237995 -1.347403 1.003713 81.565593 13.272262 -0.932983 -2.308202 2.446170 -1.103291 -2.240862 -2.213816 -7.622583 -2.236281 1.012577 9.691602 -5.305895 -3.644662 -3.865280 -0.316669 0.938442 0.000000 0.000000 0.000000 -3.891188 1.191473 2.623736 -43.895673 -22.392531 15.987280 -2.783080 -46.226654 -0.007964 4.123546 0.025263 -0.003202 -0.170353 0.148479 0.000000 0.000000 0.000000 0.000000 0.000000 0.000000 0.000000 16.702062 -4.704107 0.948831 62.287581 1.695725 4.324891 3.361668 28.902027 0.009172 5.274701 4.640129 0.213951 0.056084 -0.042963 -0.000000 0.000000 0.000000 0.000000 0.000000 0.000000 0.000000 
-1.042693 17.215519 -1.327619 2.090625 81.729053 14.360053 -0.911624 -2.453924 2.406341 -1.082040 -2.389992 -2.192397 -7.547761 -2.380354 1.080661 9.625978 -5.796612 -3.740417 -3.801106 -0.311832 0.917833 0.000000 0.000000 0.000000 -3.483217 1.028812 2.596291 -43.276979 -23.060781 15.850272 -2.694779 -46.957116 -0.008845 4.150167 0.088224 -0.001199 -0.169935 0.157234 0.000000 0.000000 0.000000 0.000000 0.000000 0.000000 0.000000 16.426846 -5.237411 0.941242 62.227958 1.273670 4.470011 3.349432 29.447427 0.009108 5.316972 4.579343 0.212752 0.056547 -0.042148 -0.000000 0.000000 0.000000 0.000000 0.000000 0.000000 0.000000 
-0.906759 17.190889 -1.306397 3.353843 81.910499 15.620632 -0.908994 -2.597589 2.374067 -1.064309 -2.536050 -2.170480 -7.468345 -2.521762 1.146035 9.559966 -6.297390 -3.835115 -3.735609 -0.306915 0.897321 0.000000 0.000000 0.000000 -3.061265 0.858274 2.562692 -42.663843 -23.695119 15.697676 -2.603784 -47.668212 -0.009724 4.169409 0.157314 0.001101 -0.168997 0.165817 0.000000 0.000000 0.000000 0.000000 0.000000 0.000000 0.000000 16.147292 -5.778672 0.933846 62.166519 0.830389 4.615994 3.334486 30.046565 0.009059 5.369681 4.527215 0.212454 0.056850 -0.041477 -0.000000 0.000000 0.000000 0.000000 0.000000 0.000000 0.000000 
-0.770546 17.164243 -1.283833 4.791635 82.105742 17.048956 -0.922723 -2.738749 2.353264 -1.049750 -2.678566 -2.146709 -7.384901 -2.659890 1.210798 9.495223 -6.817104 -3.931105 -3.669573 -0.301935 0.876188 0.000000 0.000000 0.000000 -2.628104 0.684348 2.521551 -42.059822 -24.299729 15.527822 -2.510417 -48.358858 -0.010597 4.183672 0.230503 0.003496 -0.167540 0.174199 0.000000 0.000000 0.000000 0.000000 0.000000 0.000000 0.000000 15.870456 -6.338264 0.926220 62.091334 0.384353 4.800190 3.316642 30.691462 0.009034 5.421203 4.492946 0.212856 0.057068 -0.040943 -0.000000 0.000000 0.000000 0.000000 0.000000 0.000000 0.000000 
-0.633950 17.135790 -1.259954 6.398885 82.312459 18.639142 -0.949514 -2.877269 2.344162 -1.037863 -2.817575 -2.121226 -7.298487 -2.794805 1.274172 9.433676 -7.349919 -4.026502 -3.604031 -0.296971 0.854910 0.000000 0.000000 0.000000 -2.187130 0.508815 2.473180 -41.467103 -24.872444 15.340122 -2.415368 -49.030486 -0.011458 4.194907 0.306570 0.006087 -0.165611 0.182359 0.000000 0.000000 0.000000 0.000000 0.000000 0.000000 0.000000 15.602224 -6.910960 0.917877 61.995265 -0.067381 5.029659 3.295538 31.383886 0.009028 5.469523 4.477765 0.214060 0.057186 -0.040523 -0.000000 0.000000 0.000000 0.000000 0.000000 0.000000 0.000000 
-0.496805 17.105748 -1.234814 8.169694 82.528581 20.385895 -0.985814 -3.013077 2.345795 -1.028116 -2.953233 -2.094631 -7.210405 -2.926739 1.334568 9.377004 -7.885179 -4.118207 -3.540177 -0.292131 0.834309 0.000000 0.000000 0.000000 -1.741890 0.332713 2.418536 -40.888213 -25.409931 15.133953 -2.319549 -49.685356 -0.012302 4.203858 0.384507 0.008774 -0.163267 0.190287 -0.000000 0.000000 0.000000 0.000000 0.000000 0.000000 0.000000 15.348050 -7.486389 0.908308 61.873911 -0.533773 5.299011 3.270862 32.126832 0.009035 5.516001 4.479801 0.215962 0.057166 -0.040185 -0.000000 0.000000 0.000000 0.000000 0.000000 0.000000 0.000000 
-0.358864 17.074345 -1.208375 10.101602 82.753873 22.291224 -1.027609 -3.146599 2.352899 -1.019735 -3.086329 -2.067881 -7.121727 -3.056513 1.392375 9.326791 -8.418793 -4.205705 -3.478888 -0.287481 0.814581 0.000000 0.000000 0.000000 -1.297726 0.160675 2.358217 -40.324132 -25.913612 14.911878 -2.223860 -50.324563 -0.013122 4.211061 0.462506 0.011459 -0.160574 0.197979 -0.000000 0.000000 0.000000 0.000000 0.000000 0.000000 0.000000 15.113027 -8.061275 0.896615 61.723177 -1.014497 5.608349 3.242643 32.915685 0.009050 5.558646 4.497880 0.218565 0.057012 -0.039904 -0.000000 0.000000 0.000000 0.000000 0.000000 0.000000 0.000000 
-0.219999 17.041843 -1.180695 12.191161 82.984988 24.351714 -1.072264 -3.277719 2.366445 -1.012177 -3.216817 -2.040219 -7.032968 -3.183975 1.449527 9.284023 -8.955870 -4.291256 -3.420451 -0.283013 0.795090 0.000000 0.000000 0.000000 -0.859327 -0.001187 2.292012 -39.777281 -26.388935 14.673478 -2.128976 -50.947552 -0.013905 4.215598 0.538372 0.014041 -0.157546 0.205438 -0.000000 0.000000 0.000000 0.000000 0.000000 0.000000 0.000000 14.900499 -8.641710 0.882412 61.538720 -1.492049 5.970800 3.211203 33.733909 0.009078 5.587741 4.535997 0.221569 0.056812 -0.039685 -0.000000 0.000000 0.000000 0.000000 0.000000 0.000000 0.000000 
-0.079983 17.008501 -1.151752 14.438145 83.221062 26.572841 -1.115554 -3.406393 2.379567 -1.004632 -3.345060 -2.013520 -6.945180 -3.309628 1.504298 9.248819 -9.482583 -4.371764 -3.365498 -0.278810 0.776761 0.000000 0.000000 0.000000 -0.432239 -0.151373 2.221852 -39.248567 -26.833233 14.421300 -2.035941 -51.556819 -0.014643 4.216794 0.610915 0.016522 -0.154261 0.212676 -0.000000 0.000000 0.000000 0.000000 0.000000 0.000000 0.000000 14.710928 -9.213306 0.865245 61.325116 -1.980517 6.356584 3.176826 34.579880 0.009109 5.609044 4.586473 0.224873 0.056520 -0.039506 -0.000000 0.000000 0.000000 0.000000 0.000000 0.000000 0.000000 
0.061373 16.974542 -1.121565 16.845097 83.458626 28.960391 -1.154694 -3.532249 2.389535 -0.996385 -3.470849 -1.987738 -6.858309 -3.433194 1.559023 9.220428 -10.005181 -4.450338 -3.313652 -0.274813 0.758806 0.000000 0.000000 0.000000 -0.021733 -0.283190 2.147659 -38.740773 -27.253600 14.157541 -1.945311 -52.151135 -0.015327 4.214024 0.677560 0.018703 -0.150740 0.219716 -0.000000 0.000000 0.000000 0.000000 0.000000 0.000000 0.000000 14.542935 -9.782694 0.845011 61.084414 -2.462283 6.768080 3.140431 35.431765 0.009151 5.614561 4.651691 0.228277 0.056244 -0.039386 -0.000000 0.000000 0.000000 0.000000 0.000000 0.000000 0.000000 
0.204334 16.940199 -1.090135 19.413057 83.695406 31.521475 -1.186107 -3.654409 2.389001 -0.986928 -3.593684 -1.965604 -6.773830 -3.554402 1.609342 9.197902 -10.499223 -4.520906 -3.265684 -0.271152 0.742962 0.000000 0.000000 0.000000 0.367458 -0.400607 2.072651 -38.254917 -27.640993 13.884675 -1.858149 -52.735652 -0.015953 4.206688 0.738020 0.020683 -0.147086 0.226572 -0.000000 0.000000 0.000000 0.000000 0.000000 0.000000 0.000000 14.394176 -10.323234 0.821960 60.829322 -2.969933 7.147758 3.102490 36.294882 0.009186 5.619579 4.716879 0.231681 0.055869 -0.039297 -0.000000 0.000000 0.000000 0.000000 0.000000 0.000000 0.000000 
0.349020 16.905642 -1.057562 22.137996 83.924968 34.253647 -1.208207 -3.771894 2.376935 -0.975762 -3.712623 -1.946830 -6.691237 -3.672223 1.657414 9.178915 -10.971720 -4.586844 -3.220701 -0.267731 0.728356 0.000000 0.000000 0.000000 0.731186 -0.498549 1.996722 -37.794661 -28.001123 13.604057 -1.774770 -53.309226 -0.016517 4.194468 0.790716 0.022363 -0.143315 0.233264 -0.000000 0.000000 0.000000 0.000000 0.000000 0.000000 0.000000 14.259225 -10.841551 0.796677 60.566327 -3.485212 7.494948 3.064292 37.144499 0.009223 5.617316 4.784108 0.234885 0.055513 -0.039265 -0.000000 0.000000 0.000000 0.000000 0.000000 0.000000 0.000000 
0.495578 16.871016 -1.023910 25.004150 84.141167 37.143483 -1.219155 -3.883215 2.350590 -0.962628 -3.826310 -1.932678 -6.611164 -3.785384 1.701033 9.161263 -11.410364 -4.645713 -3.178703 -0.264582 0.715693 0.000000 0.000000 0.000000 1.066470 -0.579360 1.921744 -37.362722 -28.328040 13.316921 -1.695730 -53.875473 -0.017018 4.177791 0.835652 0.023745 -0.139501 0.239798 -0.000000 0.000000 0.000000 0.000000 0.000000 0.000000 0.000000 14.133052 -11.323282 0.770118 60.308001 -4.021508 7.774262 3.026848 37.973517 0.009261 5.615745 4.845586 0.237789 0.055149 -0.039287 -0.000000 0.000000 0.000000 0.000000 0.000000 0.000000 0.000000 
0.644020 16.836392 -0.989308 27.985384 84.335638 40.161248 -1.219487 -3.987465 2.314545 -0.947203 -3.933605 -1.920765 -6.531714 -3.892485 1.746210 9.141640 -11.841024 -4.706280 -3.137612 -0.261457 0.702578 0.000000 0.000000 0.000000 1.369915 -0.631769 1.845597 -36.963262 -28.635737 13.024526 -1.620730 -54.429562 -0.017461 4.157676 0.871142 0.024627 -0.135621 0.246188 -0.000000 0.000000 0.000000 0.000000 0.000000 0.000000 0.000000 14.007669 -11.795071 0.743225 60.057932 -4.530044 8.018896 2.991844 38.741866 0.009320 5.596308 4.911861 0.240192 0.055020 -0.039410 -0.000000 0.000000 0.000000 0.000000 0.000000 0.000000 0.000000 
